<svg width="327" height="225" viewBox="0 0 327 225" fill="none" xmlns="http://www.w3.org/2000/svg">
<g clip-path="url(#clip0_2_1706)">
<path d="M41.9126 79.4089C28.131 94.5187 4.22853 96.4973 -6 95.5979V210H345V33C345 33 323.466 54.5854 308.393 70.2348C296.334 82.7543 276.092 76.5306 267.479 71.8539C259.044 67.177 223.334 88.0427 223.334 88.0427C223.334 88.0427 202.731 98.8157 188.342 99.9148C161.108 101.995 149.581 43.2535 124.279 71.8539C102.165 96.8502 76.3666 74.0126 76.3666 74.0126C76.3666 74.0126 55.6942 64.2991 41.9126 79.4089Z" fill="url(#paint0_linear_2_1706)" stroke="#301DA4" stroke-width="4"/>
<path d="M35.7156 52.2133C15.3633 82.1294 -5.24159 58.5361 -13 43V198H341V96.6538C341 96.6538 336.128 92.3182 319.349 76.6014C302.569 60.8846 304.734 157.895 261.431 86.8986C218.128 15.9021 208.927 47.8776 183.486 89.0664C163.134 122.017 147.22 104.964 141.807 92.3182C134.229 74.4336 115.501 43.3252 101.211 61.9685C83.3486 85.2727 69.2752 61.9685 69.2752 61.9685C69.2752 61.9685 53.578 28.9091 35.7156 52.2133Z" fill="url(#paint1_linear_2_1706)" stroke="#A6FF00" stroke-width="4"/>
</g>
<rect x="0.5" y="0.5" width="326" height="149" rx="15.5" stroke="#ECEFF3"/>
<path d="M43.5833 172.167H42.9167H43.5833ZM46.25 174.833V175.5V174.833ZM48.9167 172.167H49.5833H48.9167ZM46.25 169.5V168.833V169.5ZM41.5833 181.5C41.5833 181.868 41.8818 182.167 42.25 182.167C42.6182 182.167 42.9167 181.868 42.9167 181.5H41.5833ZM44.9167 177.5V176.833V177.5ZM46.9167 178.167C47.2849 178.167 47.5833 177.868 47.5833 177.5C47.5833 177.132 47.2849 176.833 46.9167 176.833V178.167ZM48.4453 181.695C48.1849 181.956 48.1849 182.378 48.4453 182.638C48.7056 182.898 49.1277 182.898 49.3881 182.638L48.4453 181.695ZM52.25 178.833H52.9167C52.9167 178.465 52.6182 178.167 52.25 178.167V178.833ZM51.5833 181.833C51.5833 182.202 51.8818 182.5 52.25 182.5C52.6182 182.5 52.9167 182.202 52.9167 181.833H51.5833ZM49.25 178.167C48.8818 178.167 48.5833 178.465 48.5833 178.833C48.5833 179.202 48.8818 179.5 49.25 179.5V178.167ZM42.9167 172.167C42.9167 173.051 43.2679 173.899 43.893 174.524L44.8358 173.581C44.4607 173.206 44.25 172.697 44.25 172.167H42.9167ZM43.893 174.524C44.5181 175.149 45.3659 175.5 46.25 175.5V174.167C45.7196 174.167 45.2109 173.956 44.8358 173.581L43.893 174.524ZM46.25 175.5C47.1341 175.5 47.9819 175.149 48.607 174.524L47.6642 173.581C47.2891 173.956 46.7804 174.167 46.25 174.167V175.5ZM48.607 174.524C49.2321 173.899 49.5833 173.051 49.5833 172.167H48.25C48.25 172.697 48.0393 173.206 47.6642 173.581L48.607 174.524ZM49.5833 172.167C49.5833 171.283 49.2321 170.435 48.607 169.81L47.6642 170.752C48.0393 171.128 48.25 171.636 48.25 172.167H49.5833ZM48.607 169.81C47.9819 169.185 47.1341 168.833 46.25 168.833V170.167C46.7804 170.167 47.2891 170.377 47.6642 170.752L48.607 169.81ZM46.25 168.833C45.3659 168.833 44.5181 169.185 43.893 169.81L44.8358 170.752C45.2109 170.377 45.7196 170.167 46.25 170.167V168.833ZM43.893 169.81C43.2679 170.435 42.9167 171.283 42.9167 172.167H44.25C44.25 171.636 44.4607 171.128 44.8358 170.752L43.893 169.81ZM42.9167 181.5V180.167H41.5833V181.5H42.9167ZM42.9167 180.167C42.9167 179.636 43.1274 179.128 43.5025 178.752L42.5596 177.81C41.9345 178.435 41.5833 179.283 41.5833 180.167H42.9167ZM43.5025 178.752C43.8775 178.377 44.3862 178.167 44.9167 178.167V176.833C44.0326 176.833 43.1848 177.185 42.5596 177.81L43.5025 178.752ZM44.9167 178.167H46.9167V176.833H44.9167V178.167ZM49.3881 182.638L52.7214 179.305L51.7786 178.362L48.4453 181.695L49.3881 182.638ZM52.9167 181.833V178.833H51.5833V181.833H52.9167ZM52.25 178.167H49.25V179.5H52.25V178.167Z" fill="#A6FF00"/>
<path d="M70.6244 174H69.5676C69.5051 173.696 69.3957 173.429 69.2394 173.199C69.086 172.969 68.8985 172.776 68.6769 172.619C68.4582 172.46 68.2153 172.341 67.9483 172.261C67.6812 172.182 67.4028 172.142 67.113 172.142C66.5846 172.142 66.1059 172.276 65.6769 172.543C65.2508 172.81 64.9113 173.203 64.6585 173.723C64.4085 174.243 64.2835 174.881 64.2835 175.636C64.2835 176.392 64.4085 177.03 64.6585 177.55C64.9113 178.07 65.2508 178.463 65.6769 178.73C66.1059 178.997 66.5846 179.131 67.113 179.131C67.4028 179.131 67.6812 179.091 67.9483 179.011C68.2153 178.932 68.4582 178.814 68.6769 178.658C68.8985 178.499 69.086 178.304 69.2394 178.074C69.3957 177.841 69.5051 177.574 69.5676 177.273H70.6244C70.5448 177.719 70.4 178.118 70.1897 178.47C69.9795 178.822 69.7181 179.122 69.4056 179.369C69.0931 179.614 68.7423 179.8 68.3531 179.928C67.9667 180.055 67.5534 180.119 67.113 180.119C66.3687 180.119 65.7068 179.938 65.1272 179.574C64.5477 179.21 64.0917 178.693 63.7593 178.023C63.4269 177.352 63.2608 176.557 63.2608 175.636C63.2608 174.716 63.4269 173.92 63.7593 173.25C64.0917 172.58 64.5477 172.062 65.1272 171.699C65.7068 171.335 66.3687 171.153 67.113 171.153C67.5534 171.153 67.9667 171.217 68.3531 171.345C68.7423 171.473 69.0931 171.661 69.4056 171.908C69.7181 172.152 69.9795 172.45 70.1897 172.803C70.4 173.152 70.5448 173.551 70.6244 174ZM73.8819 180.153C73.4671 180.153 73.0907 180.075 72.7526 179.919C72.4146 179.76 72.1461 179.531 71.9472 179.233C71.7484 178.932 71.6489 178.568 71.6489 178.142C71.6489 177.767 71.7228 177.463 71.8705 177.23C72.0183 176.994 72.2157 176.81 72.4629 176.676C72.71 176.543 72.9828 176.443 73.2811 176.378C73.5822 176.31 73.8847 176.256 74.1887 176.216C74.5864 176.165 74.9089 176.126 75.1561 176.101C75.4061 176.072 75.5879 176.026 75.7015 175.96C75.818 175.895 75.8762 175.781 75.8762 175.619V175.585C75.8762 175.165 75.7612 174.838 75.5311 174.605C75.3038 174.372 74.9586 174.256 74.4955 174.256C74.0154 174.256 73.639 174.361 73.3663 174.571C73.0936 174.781 72.9018 175.006 72.791 175.244L71.8364 174.903C72.0069 174.506 72.2342 174.196 72.5183 173.974C72.8052 173.75 73.1177 173.594 73.4558 173.506C73.7967 173.415 74.1319 173.369 74.4614 173.369C74.6717 173.369 74.9132 173.395 75.1859 173.446C75.4614 173.494 75.7271 173.595 75.9828 173.749C76.2413 173.902 76.4558 174.134 76.6262 174.443C76.7967 174.753 76.8819 175.168 76.8819 175.688V180H75.8762V179.114H75.8251C75.7569 179.256 75.6433 179.408 75.4842 179.57C75.3251 179.732 75.1134 179.869 74.8492 179.983C74.585 180.097 74.2626 180.153 73.8819 180.153ZM74.0353 179.25C74.433 179.25 74.7683 179.172 75.041 179.016C75.3166 178.859 75.5239 178.658 75.6632 178.411C75.8052 178.163 75.8762 177.903 75.8762 177.631V176.71C75.8336 176.761 75.7399 176.808 75.595 176.851C75.4529 176.891 75.2882 176.926 75.1007 176.957C74.916 176.986 74.7356 177.011 74.5595 177.034C74.3862 177.054 74.2455 177.071 74.1376 177.085C73.8762 177.119 73.6319 177.175 73.4046 177.251C73.1802 177.325 72.9984 177.437 72.8592 177.588C72.7228 177.736 72.6546 177.937 72.6546 178.193C72.6546 178.543 72.7839 178.807 73.0424 178.986C73.3038 179.162 73.6347 179.25 74.0353 179.25ZM79.4832 176.062V180H78.4775V173.455H79.4491V174.477H79.5343C79.6877 174.145 79.9207 173.878 80.2332 173.676C80.5457 173.472 80.9491 173.369 81.4434 173.369C81.8866 173.369 82.2744 173.46 82.6067 173.642C82.9391 173.821 83.1977 174.094 83.3823 174.46C83.567 174.824 83.6593 175.284 83.6593 175.841V180H82.6536V175.909C82.6536 175.395 82.5201 174.994 82.2531 174.707C81.986 174.418 81.6195 174.273 81.1536 174.273C80.8326 174.273 80.5457 174.342 80.2928 174.482C80.0428 174.621 79.8454 174.824 79.7005 175.091C79.5556 175.358 79.4832 175.682 79.4832 176.062ZM87.7286 180.136C87.1832 180.136 86.7016 179.999 86.284 179.723C85.8664 179.445 85.5397 179.053 85.3039 178.547C85.0681 178.038 84.9502 177.438 84.9502 176.744C84.9502 176.057 85.0681 175.46 85.3039 174.955C85.5397 174.449 85.8678 174.058 86.2883 173.783C86.7087 173.507 87.1945 173.369 87.7457 173.369C88.1718 173.369 88.5084 173.44 88.7556 173.582C89.0056 173.722 89.1959 173.881 89.3266 174.06C89.4601 174.236 89.5638 174.381 89.6377 174.494H89.7229V171.273H90.7286V180H89.757V178.994H89.6377C89.5638 179.114 89.4587 179.264 89.3224 179.446C89.186 179.625 88.9914 179.786 88.7386 179.928C88.4857 180.067 88.1491 180.136 87.7286 180.136ZM87.865 179.233C88.2684 179.233 88.6093 179.128 88.8877 178.918C89.1661 178.705 89.3778 178.411 89.5226 178.036C89.6675 177.658 89.74 177.222 89.74 176.727C89.74 176.239 89.6689 175.811 89.5269 175.445C89.3849 175.075 89.1746 174.788 88.8962 174.584C88.6178 174.376 88.2741 174.273 87.865 174.273C87.4388 174.273 87.0837 174.382 86.7996 174.601C86.5184 174.817 86.3067 175.111 86.1647 175.483C86.0255 175.852 85.9559 176.267 85.9559 176.727C85.9559 177.193 86.0269 177.616 86.1689 177.997C86.3138 178.375 86.5269 178.676 86.8082 178.901C87.0922 179.122 87.4445 179.233 87.865 179.233ZM92.4701 180V173.455H93.4758V180H92.4701ZM92.9815 172.364C92.7855 172.364 92.6164 172.297 92.4744 172.163C92.3352 172.03 92.2656 171.869 92.2656 171.682C92.2656 171.494 92.3352 171.334 92.4744 171.2C92.6164 171.067 92.7855 171 92.9815 171C93.1775 171 93.3451 171.067 93.4843 171.2C93.6264 171.334 93.6974 171.494 93.6974 171.682C93.6974 171.869 93.6264 172.03 93.4843 172.163C93.3451 172.297 93.1775 172.364 92.9815 172.364ZM97.5494 180.136C97.0039 180.136 96.5224 179.999 96.1048 179.723C95.6872 179.445 95.3605 179.053 95.1247 178.547C94.8889 178.038 94.771 177.438 94.771 176.744C94.771 176.057 94.8889 175.46 95.1247 174.955C95.3605 174.449 95.6886 174.058 96.109 173.783C96.5295 173.507 97.0153 173.369 97.5664 173.369C97.9926 173.369 98.3292 173.44 98.5764 173.582C98.8264 173.722 99.0167 173.881 99.1474 174.06C99.2809 174.236 99.3846 174.381 99.4585 174.494H99.5437V171.273H100.549V180H99.5778V178.994H99.4585C99.3846 179.114 99.2795 179.264 99.1431 179.446C99.0068 179.625 98.8122 179.786 98.5593 179.928C98.3065 180.067 97.9698 180.136 97.5494 180.136ZM97.6858 179.233C98.0892 179.233 98.4301 179.128 98.7085 178.918C98.9869 178.705 99.1985 178.411 99.3434 178.036C99.4883 177.658 99.5608 177.222 99.5608 176.727C99.5608 176.239 99.4897 175.811 99.3477 175.445C99.2056 175.075 98.9954 174.788 98.717 174.584C98.4386 174.376 98.0948 174.273 97.6858 174.273C97.2596 174.273 96.9045 174.382 96.6204 174.601C96.3392 174.817 96.1275 175.111 95.9855 175.483C95.8463 175.852 95.7767 176.267 95.7767 176.727C95.7767 177.193 95.8477 177.616 95.9897 177.997C96.1346 178.375 96.3477 178.676 96.6289 178.901C96.913 179.122 97.2653 179.233 97.6858 179.233ZM104.217 180.153C103.802 180.153 103.426 180.075 103.088 179.919C102.75 179.76 102.481 179.531 102.282 179.233C102.084 178.932 101.984 178.568 101.984 178.142C101.984 177.767 102.058 177.463 102.206 177.23C102.353 176.994 102.551 176.81 102.798 176.676C103.045 176.543 103.318 176.443 103.616 176.378C103.917 176.31 104.22 176.256 104.524 176.216C104.922 176.165 105.244 176.126 105.491 176.101C105.741 176.072 105.923 176.026 106.037 175.96C106.153 175.895 106.211 175.781 106.211 175.619V175.585C106.211 175.165 106.096 174.838 105.866 174.605C105.639 174.372 105.294 174.256 104.831 174.256C104.351 174.256 103.974 174.361 103.701 174.571C103.429 174.781 103.237 175.006 103.126 175.244L102.172 174.903C102.342 174.506 102.569 174.196 102.853 173.974C103.14 173.75 103.453 173.594 103.791 173.506C104.132 173.415 104.467 173.369 104.797 173.369C105.007 173.369 105.248 173.395 105.521 173.446C105.797 173.494 106.062 173.595 106.318 173.749C106.576 173.902 106.791 174.134 106.961 174.443C107.132 174.753 107.217 175.168 107.217 175.688V180H106.211V179.114H106.16C106.092 179.256 105.978 179.408 105.819 179.57C105.66 179.732 105.449 179.869 105.184 179.983C104.92 180.097 104.598 180.153 104.217 180.153ZM104.37 179.25C104.768 179.25 105.103 179.172 105.376 179.016C105.652 178.859 105.859 178.658 105.998 178.411C106.14 178.163 106.211 177.903 106.211 177.631V176.71C106.169 176.761 106.075 176.808 105.93 176.851C105.788 176.891 105.623 176.926 105.436 176.957C105.251 176.986 105.071 177.011 104.895 177.034C104.721 177.054 104.581 177.071 104.473 177.085C104.211 177.119 103.967 177.175 103.74 177.251C103.515 177.325 103.334 177.437 103.194 177.588C103.058 177.736 102.99 177.937 102.99 178.193C102.99 178.543 103.119 178.807 103.378 178.986C103.639 179.162 103.97 179.25 104.37 179.25ZM111.659 173.455V174.307H108.267V173.455H111.659ZM109.256 171.886H110.262V178.125C110.262 178.409 110.303 178.622 110.385 178.764C110.47 178.903 110.578 178.997 110.709 179.045C110.842 179.091 110.983 179.114 111.131 179.114C111.242 179.114 111.333 179.108 111.404 179.097C111.475 179.082 111.531 179.071 111.574 179.062L111.779 179.966C111.71 179.991 111.615 180.017 111.493 180.043C111.371 180.071 111.216 180.085 111.029 180.085C110.744 180.085 110.466 180.024 110.193 179.902C109.923 179.78 109.699 179.594 109.52 179.344C109.344 179.094 109.256 178.778 109.256 178.398V171.886ZM115.606 180.136C114.975 180.136 114.431 179.997 113.974 179.719C113.519 179.438 113.169 179.045 112.921 178.543C112.677 178.037 112.555 177.449 112.555 176.778C112.555 176.108 112.677 175.517 112.921 175.006C113.169 174.491 113.512 174.091 113.953 173.804C114.396 173.514 114.913 173.369 115.504 173.369C115.845 173.369 116.181 173.426 116.514 173.54C116.846 173.653 117.149 173.838 117.421 174.094C117.694 174.347 117.911 174.682 118.073 175.099C118.235 175.517 118.316 176.031 118.316 176.642V177.068H113.271V176.199H117.294C117.294 175.83 117.22 175.5 117.072 175.21C116.927 174.92 116.72 174.692 116.45 174.524C116.183 174.357 115.867 174.273 115.504 174.273C115.103 174.273 114.757 174.372 114.464 174.571C114.174 174.767 113.951 175.023 113.795 175.338C113.639 175.653 113.561 175.991 113.561 176.352V176.932C113.561 177.426 113.646 177.845 113.816 178.189C113.99 178.53 114.23 178.79 114.536 178.969C114.843 179.145 115.2 179.233 115.606 179.233C115.87 179.233 116.109 179.196 116.322 179.122C116.538 179.045 116.724 178.932 116.88 178.781C117.036 178.628 117.157 178.437 117.242 178.21L118.214 178.483C118.112 178.812 117.94 179.102 117.698 179.352C117.457 179.599 117.159 179.793 116.803 179.932C116.448 180.068 116.049 180.136 115.606 180.136ZM124.242 174.92L123.339 175.176C123.282 175.026 123.198 174.879 123.088 174.737C122.98 174.592 122.832 174.473 122.644 174.379C122.457 174.286 122.217 174.239 121.924 174.239C121.524 174.239 121.19 174.331 120.923 174.516C120.659 174.697 120.527 174.929 120.527 175.21C120.527 175.46 120.617 175.658 120.799 175.803C120.981 175.947 121.265 176.068 121.652 176.165L122.623 176.403C123.208 176.545 123.644 176.763 123.931 177.055C124.218 177.345 124.362 177.719 124.362 178.176C124.362 178.551 124.254 178.886 124.038 179.182C123.825 179.477 123.527 179.71 123.143 179.881C122.759 180.051 122.313 180.136 121.805 180.136C121.137 180.136 120.585 179.991 120.147 179.702C119.71 179.412 119.433 178.989 119.316 178.432L120.271 178.193C120.362 178.545 120.534 178.81 120.786 178.986C121.042 179.162 121.376 179.25 121.788 179.25C122.257 179.25 122.629 179.151 122.904 178.952C123.183 178.75 123.322 178.509 123.322 178.227C123.322 178 123.242 177.81 123.083 177.656C122.924 177.5 122.68 177.384 122.35 177.307L121.259 177.051C120.66 176.909 120.22 176.689 119.938 176.391C119.66 176.089 119.521 175.713 119.521 175.261C119.521 174.892 119.625 174.565 119.832 174.281C120.042 173.997 120.328 173.774 120.688 173.612C121.052 173.45 121.464 173.369 121.924 173.369C122.572 173.369 123.081 173.511 123.45 173.795C123.822 174.08 124.086 174.455 124.242 174.92Z" fill="#666D80"/>
<path d="M57.4187 216V213.341L63.6317 207.588C64.1602 207.077 64.6033 206.616 64.9613 206.207C65.3249 205.798 65.6005 205.398 65.788 205.006C65.9755 204.608 66.0692 204.179 66.0692 203.719C66.0692 203.207 65.9528 202.767 65.7198 202.398C65.4869 202.023 65.1687 201.736 64.7653 201.537C64.3619 201.332 63.9045 201.23 63.3931 201.23C62.859 201.23 62.3931 201.338 61.9954 201.554C61.5977 201.77 61.2908 202.08 61.0749 202.483C60.859 202.886 60.7511 203.366 60.7511 203.923H57.2482C57.2482 202.781 57.5067 201.79 58.0238 200.949C58.5408 200.108 59.2653 199.457 60.1971 198.997C61.1289 198.537 62.2028 198.307 63.4187 198.307C64.6687 198.307 65.7567 198.528 66.6829 198.972C67.6147 199.409 68.3391 200.017 68.8562 200.795C69.3732 201.574 69.6317 202.466 69.6317 203.472C69.6317 204.131 69.5011 204.781 69.2397 205.423C68.984 206.065 68.5266 206.778 67.8675 207.562C67.2085 208.341 66.2795 209.276 65.0806 210.366L62.5323 212.864V212.983H69.8619V216H57.4187ZM74.6921 216.222C74.1296 216.222 73.6467 216.023 73.2433 215.625C72.8455 215.222 72.6467 214.739 72.6467 214.176C72.6467 213.619 72.8455 213.142 73.2433 212.744C73.6467 212.347 74.1296 212.148 74.6921 212.148C75.2376 212.148 75.7148 212.347 76.1239 212.744C76.533 213.142 76.7376 213.619 76.7376 214.176C76.7376 214.551 76.641 214.895 76.4478 215.207C76.2603 215.514 76.0131 215.761 75.7063 215.949C75.3995 216.131 75.0614 216.222 74.6921 216.222ZM85.5735 216.239C84.3008 216.239 83.1673 216.02 82.1729 215.582C81.1843 215.139 80.4031 214.531 79.8292 213.759C79.261 212.98 78.9684 212.082 78.9513 211.065H82.6673C82.69 211.491 82.8292 211.866 83.0849 212.19C83.3462 212.509 83.6928 212.756 84.1246 212.932C84.5565 213.108 85.0423 213.196 85.582 213.196C86.1445 213.196 86.6417 213.097 87.0735 212.898C87.5053 212.699 87.8434 212.423 88.0877 212.071C88.332 211.719 88.4542 211.312 88.4542 210.852C88.4542 210.386 88.3235 209.974 88.0621 209.616C87.8065 209.253 87.4371 208.969 86.9542 208.764C86.4769 208.56 85.9087 208.457 85.2496 208.457H83.6218V205.747H85.2496C85.8065 205.747 86.2979 205.651 86.7241 205.457C87.1559 205.264 87.4911 204.997 87.7298 204.656C87.9684 204.31 88.0877 203.906 88.0877 203.446C88.0877 203.009 87.9826 202.625 87.7724 202.295C87.5678 201.96 87.2781 201.699 86.9031 201.511C86.5337 201.324 86.1019 201.23 85.6076 201.23C85.1076 201.23 84.6502 201.321 84.2354 201.503C83.8207 201.679 83.4883 201.932 83.2383 202.261C82.9883 202.591 82.8548 202.977 82.8377 203.42H79.3008C79.3178 202.415 79.6048 201.528 80.1616 200.761C80.7184 199.994 81.4684 199.395 82.4116 198.963C83.3604 198.526 84.4315 198.307 85.6246 198.307C86.8292 198.307 87.8832 198.526 88.7866 198.963C89.69 199.401 90.3917 199.991 90.8917 200.736C91.3974 201.474 91.6474 202.304 91.6417 203.224C91.6474 204.202 91.3434 205.017 90.7298 205.67C90.1218 206.324 89.3292 206.739 88.3519 206.915V207.051C89.636 207.216 90.6133 207.662 91.2837 208.389C91.9599 209.111 92.2951 210.014 92.2894 211.099C92.2951 212.094 92.0082 212.977 91.4286 213.75C90.8548 214.523 90.0621 215.131 89.0508 215.574C88.0394 216.017 86.8803 216.239 85.5735 216.239ZM98.266 212.233L98.2745 207.878H98.8029L102.996 202.909H107.164L101.53 209.489H100.669L98.266 212.233ZM94.9762 216V198.545H98.6069V216H94.9762ZM103.158 216L99.3058 210.298L101.726 207.733L107.411 216H103.158Z" fill="#0D0D12"/>
<path d="M193.417 180.167C193.048 180.167 192.75 180.465 192.75 180.833C192.75 181.202 193.048 181.5 193.417 181.5V180.167ZM196.083 180.833V181.5C196.451 181.5 196.75 181.202 196.75 180.833H196.083ZM196.083 178.167V177.5C195.715 177.5 195.417 177.798 195.417 178.167H196.083ZM198.75 178.167V178.833C199.118 178.833 199.417 178.535 199.417 178.167H198.75ZM198.75 175.5V174.833C198.382 174.833 198.083 175.132 198.083 175.5H198.75ZM201.417 175.5V176.167C201.785 176.167 202.083 175.868 202.083 175.5H201.417ZM201.417 172.833V172.167C201.048 172.167 200.75 172.465 200.75 172.833H201.417ZM204.083 173.5C204.451 173.5 204.75 173.202 204.75 172.833C204.75 172.465 204.451 172.167 204.083 172.167V173.5ZM192.945 174.362C192.685 174.622 192.685 175.044 192.945 175.305C193.206 175.565 193.628 175.565 193.888 175.305L192.945 174.362ZM198.083 170.167H198.75C198.75 169.798 198.451 169.5 198.083 169.5V170.167ZM197.417 172.833C197.417 173.202 197.715 173.5 198.083 173.5C198.451 173.5 198.75 173.202 198.75 172.833H197.417ZM195.417 169.5C195.048 169.5 194.75 169.798 194.75 170.167C194.75 170.535 195.048 170.833 195.417 170.833V169.5ZM193.417 181.5H196.083V180.167H193.417V181.5ZM196.75 180.833V178.167H195.417V180.833H196.75ZM196.083 178.833H198.75V177.5H196.083V178.833ZM199.417 178.167V175.5H198.083V178.167H199.417ZM198.75 176.167H201.417V174.833H198.75V176.167ZM202.083 175.5V172.833H200.75V175.5H202.083ZM201.417 173.5H204.083V172.167H201.417V173.5ZM193.888 175.305L198.555 170.638L197.612 169.695L192.945 174.362L193.888 175.305ZM197.417 170.167V172.833H198.75V170.167H197.417ZM195.417 170.833H198.083V169.5H195.417V170.833Z" fill="#301DA4"/>
<path d="M215.889 180V171.273H218.838C219.523 171.273 220.082 171.396 220.517 171.643C220.955 171.888 221.278 172.219 221.489 172.636C221.699 173.054 221.804 173.52 221.804 174.034C221.804 174.548 221.699 175.016 221.489 175.436C221.281 175.857 220.96 176.192 220.526 176.442C220.091 176.689 219.534 176.812 218.855 176.812H216.741V175.875H218.821C219.29 175.875 219.666 175.794 219.95 175.632C220.234 175.47 220.44 175.251 220.568 174.976C220.699 174.697 220.764 174.384 220.764 174.034C220.764 173.685 220.699 173.372 220.568 173.097C220.44 172.821 220.233 172.605 219.946 172.449C219.659 172.29 219.278 172.21 218.804 172.21H216.946V180H215.889ZM223.13 180V173.455H224.102V174.443H224.17C224.289 174.119 224.505 173.857 224.817 173.655C225.13 173.453 225.482 173.352 225.874 173.352C225.948 173.352 226.04 173.354 226.151 173.357C226.262 173.359 226.346 173.364 226.403 173.369V174.392C226.369 174.384 226.29 174.371 226.168 174.354C226.049 174.334 225.923 174.324 225.789 174.324C225.471 174.324 225.187 174.391 224.937 174.524C224.69 174.655 224.494 174.837 224.349 175.07C224.207 175.3 224.136 175.562 224.136 175.858V180H223.13ZM229.815 180.136C229.224 180.136 228.705 179.996 228.259 179.714C227.816 179.433 227.47 179.04 227.22 178.534C226.972 178.028 226.849 177.437 226.849 176.761C226.849 176.08 226.972 175.484 227.22 174.976C227.47 174.467 227.816 174.072 228.259 173.791C228.705 173.51 229.224 173.369 229.815 173.369C230.406 173.369 230.923 173.51 231.366 173.791C231.812 174.072 232.158 174.467 232.406 174.976C232.656 175.484 232.781 176.08 232.781 176.761C232.781 177.437 232.656 178.028 232.406 178.534C232.158 179.04 231.812 179.433 231.366 179.714C230.923 179.996 230.406 180.136 229.815 180.136ZM229.815 179.233C230.264 179.233 230.633 179.118 230.923 178.888C231.212 178.658 231.427 178.355 231.566 177.98C231.705 177.605 231.775 177.199 231.775 176.761C231.775 176.324 231.705 175.916 231.566 175.538C231.427 175.161 231.212 174.855 230.923 174.622C230.633 174.389 230.264 174.273 229.815 174.273C229.366 174.273 228.997 174.389 228.707 174.622C228.417 174.855 228.202 175.161 228.063 175.538C227.924 175.916 227.854 176.324 227.854 176.761C227.854 177.199 227.924 177.605 228.063 177.98C228.202 178.355 228.417 178.658 228.707 178.888C228.997 179.118 229.366 179.233 229.815 179.233ZM236.991 173.455V174.307H233.462V173.455H236.991ZM234.519 180V172.551C234.519 172.176 234.607 171.864 234.783 171.614C234.959 171.364 235.188 171.176 235.469 171.051C235.75 170.926 236.047 170.864 236.36 170.864C236.607 170.864 236.809 170.884 236.965 170.923C237.121 170.963 237.238 171 237.314 171.034L237.025 171.903C236.973 171.886 236.902 171.865 236.812 171.839C236.723 171.814 236.607 171.801 236.462 171.801C236.13 171.801 235.89 171.885 235.742 172.053C235.597 172.22 235.525 172.466 235.525 172.79V180H234.519ZM238.16 180V173.455H239.166V180H238.16ZM238.671 172.364C238.475 172.364 238.306 172.297 238.164 172.163C238.025 172.03 237.955 171.869 237.955 171.682C237.955 171.494 238.025 171.334 238.164 171.2C238.306 171.067 238.475 171 238.671 171C238.867 171 239.035 171.067 239.174 171.2C239.316 171.334 239.387 171.494 239.387 171.682C239.387 171.869 239.316 172.03 239.174 172.163C239.035 172.297 238.867 172.364 238.671 172.364ZM241.773 171.273V180H240.768V171.273H241.773ZM246.12 180.136C245.489 180.136 244.945 179.997 244.488 179.719C244.033 179.438 243.682 179.045 243.435 178.543C243.191 178.037 243.068 177.449 243.068 176.778C243.068 176.108 243.191 175.517 243.435 175.006C243.682 174.491 244.026 174.091 244.466 173.804C244.909 173.514 245.426 173.369 246.017 173.369C246.358 173.369 246.695 173.426 247.027 173.54C247.36 173.653 247.662 173.838 247.935 174.094C248.208 174.347 248.425 174.682 248.587 175.099C248.749 175.517 248.83 176.031 248.83 176.642V177.068H243.784V176.199H247.807C247.807 175.83 247.733 175.5 247.586 175.21C247.441 174.92 247.233 174.692 246.963 174.524C246.696 174.357 246.381 174.273 246.017 174.273C245.617 174.273 245.27 174.372 244.978 174.571C244.688 174.767 244.465 175.023 244.309 175.338C244.152 175.653 244.074 175.991 244.074 176.352V176.932C244.074 177.426 244.159 177.845 244.33 178.189C244.503 178.53 244.743 178.79 245.05 178.969C245.357 179.145 245.713 179.233 246.12 179.233C246.384 179.233 246.622 179.196 246.836 179.122C247.051 179.045 247.238 178.932 247.394 178.781C247.55 178.628 247.671 178.437 247.756 178.21L248.728 178.483C248.625 178.812 248.453 179.102 248.212 179.352C247.97 179.599 247.672 179.793 247.317 179.932C246.962 180.068 246.563 180.136 246.12 180.136ZM253.391 171.273H254.652L257.618 178.517H257.721L260.686 171.273H261.948V180H260.959V173.369H260.874L258.147 180H257.192L254.465 173.369H254.38V180H253.391V171.273ZM265.617 180.153C265.202 180.153 264.825 180.075 264.487 179.919C264.149 179.76 263.881 179.531 263.682 179.233C263.483 178.932 263.384 178.568 263.384 178.142C263.384 177.767 263.458 177.463 263.605 177.23C263.753 176.994 263.95 176.81 264.198 176.676C264.445 176.543 264.717 176.443 265.016 176.378C265.317 176.31 265.619 176.256 265.923 176.216C266.321 176.165 266.644 176.126 266.891 176.101C267.141 176.072 267.323 176.026 267.436 175.96C267.553 175.895 267.611 175.781 267.611 175.619V175.585C267.611 175.165 267.496 174.838 267.266 174.605C267.038 174.372 266.693 174.256 266.23 174.256C265.75 174.256 265.374 174.361 265.101 174.571C264.828 174.781 264.636 175.006 264.526 175.244L263.571 174.903C263.742 174.506 263.969 174.196 264.253 173.974C264.54 173.75 264.852 173.594 265.19 173.506C265.531 173.415 265.867 173.369 266.196 173.369C266.406 173.369 266.648 173.395 266.921 173.446C267.196 173.494 267.462 173.595 267.717 173.749C267.976 173.902 268.19 174.134 268.361 174.443C268.531 174.753 268.617 175.168 268.617 175.688V180H267.611V179.114H267.56C267.492 179.256 267.378 179.408 267.219 179.57C267.06 179.732 266.848 179.869 266.584 179.983C266.32 180.097 265.997 180.153 265.617 180.153ZM265.77 179.25C266.168 179.25 266.503 179.172 266.776 179.016C267.051 178.859 267.259 178.658 267.398 178.411C267.54 178.163 267.611 177.903 267.611 177.631V176.71C267.568 176.761 267.475 176.808 267.33 176.851C267.188 176.891 267.023 176.926 266.835 176.957C266.651 176.986 266.47 177.011 266.294 177.034C266.121 177.054 265.98 177.071 265.872 177.085C265.611 177.119 265.367 177.175 265.139 177.251C264.915 177.325 264.733 177.437 264.594 177.588C264.458 177.736 264.389 177.937 264.389 178.193C264.389 178.543 264.519 178.807 264.777 178.986C265.038 179.162 265.369 179.25 265.77 179.25ZM273.059 173.455V174.307H269.667V173.455H273.059ZM270.655 171.886H271.661V178.125C271.661 178.409 271.702 178.622 271.785 178.764C271.87 178.903 271.978 178.997 272.108 179.045C272.242 179.091 272.383 179.114 272.53 179.114C272.641 179.114 272.732 179.108 272.803 179.097C272.874 179.082 272.931 179.071 272.974 179.062L273.178 179.966C273.11 179.991 273.015 180.017 272.893 180.043C272.77 180.071 272.616 180.085 272.428 180.085C272.144 180.085 271.866 180.024 271.593 179.902C271.323 179.78 271.099 179.594 270.92 179.344C270.743 179.094 270.655 178.778 270.655 178.398V171.886ZM276.92 180.136C276.307 180.136 275.778 179.991 275.335 179.702C274.892 179.412 274.551 179.013 274.312 178.504C274.074 177.996 273.954 177.415 273.954 176.761C273.954 176.097 274.077 175.51 274.321 175.001C274.568 174.49 274.912 174.091 275.352 173.804C275.795 173.514 276.312 173.369 276.903 173.369C277.364 173.369 277.778 173.455 278.148 173.625C278.517 173.795 278.819 174.034 279.055 174.341C279.291 174.648 279.437 175.006 279.494 175.415H278.489C278.412 175.116 278.241 174.852 277.977 174.622C277.716 174.389 277.364 174.273 276.92 174.273C276.528 174.273 276.185 174.375 275.889 174.58C275.596 174.781 275.368 175.067 275.203 175.436C275.041 175.803 274.96 176.233 274.96 176.727C274.96 177.233 275.04 177.673 275.199 178.048C275.361 178.423 275.588 178.714 275.881 178.922C276.176 179.129 276.523 179.233 276.92 179.233C277.182 179.233 277.419 179.188 277.632 179.097C277.845 179.006 278.025 178.875 278.173 178.705C278.321 178.534 278.426 178.33 278.489 178.091H279.494C279.437 178.477 279.297 178.825 279.072 179.135C278.851 179.442 278.557 179.686 278.19 179.868C277.827 180.047 277.403 180.136 276.92 180.136ZM281.73 176.062V180H280.724V171.273H281.73V174.477H281.815C281.969 174.139 282.199 173.871 282.506 173.672C282.815 173.47 283.227 173.369 283.741 173.369C284.187 173.369 284.578 173.459 284.913 173.638C285.249 173.814 285.508 174.085 285.693 174.452C285.881 174.815 285.974 175.278 285.974 175.841V180H284.969V175.909C284.969 175.389 284.834 174.987 284.564 174.703C284.297 174.416 283.926 174.273 283.452 174.273C283.122 174.273 282.827 174.342 282.565 174.482C282.307 174.621 282.102 174.824 281.952 175.091C281.804 175.358 281.73 175.682 281.73 176.062ZM290.319 180.136C289.688 180.136 289.144 179.997 288.686 179.719C288.232 179.438 287.881 179.045 287.634 178.543C287.39 178.037 287.267 177.449 287.267 176.778C287.267 176.108 287.39 175.517 287.634 175.006C287.881 174.491 288.225 174.091 288.665 173.804C289.108 173.514 289.625 173.369 290.216 173.369C290.557 173.369 290.894 173.426 291.226 173.54C291.559 173.653 291.861 173.838 292.134 174.094C292.407 174.347 292.624 174.682 292.786 175.099C292.948 175.517 293.029 176.031 293.029 176.642V177.068H287.983V176.199H292.006C292.006 175.83 291.932 175.5 291.784 175.21C291.64 174.92 291.432 174.692 291.162 174.524C290.895 174.357 290.58 174.273 290.216 174.273C289.816 174.273 289.469 174.372 289.176 174.571C288.887 174.767 288.664 175.023 288.507 175.338C288.351 175.653 288.273 175.991 288.273 176.352V176.932C288.273 177.426 288.358 177.845 288.529 178.189C288.702 178.53 288.942 178.79 289.249 178.969C289.556 179.145 289.912 179.233 290.319 179.233C290.583 179.233 290.821 179.196 291.034 179.122C291.25 179.045 291.436 178.932 291.593 178.781C291.749 178.628 291.87 178.437 291.955 178.21L292.926 178.483C292.824 178.812 292.652 179.102 292.411 179.352C292.169 179.599 291.871 179.793 291.516 179.932C291.161 180.068 290.762 180.136 290.319 180.136ZM298.955 174.92L298.052 175.176C297.995 175.026 297.911 174.879 297.8 174.737C297.692 174.592 297.544 174.473 297.357 174.379C297.169 174.286 296.929 174.239 296.637 174.239C296.236 174.239 295.902 174.331 295.635 174.516C295.371 174.697 295.239 174.929 295.239 175.21C295.239 175.46 295.33 175.658 295.512 175.803C295.694 175.947 295.978 176.068 296.364 176.165L297.336 176.403C297.921 176.545 298.357 176.763 298.644 177.055C298.931 177.345 299.074 177.719 299.074 178.176C299.074 178.551 298.966 178.886 298.75 179.182C298.537 179.477 298.239 179.71 297.856 179.881C297.472 180.051 297.026 180.136 296.517 180.136C295.85 180.136 295.297 179.991 294.86 179.702C294.422 179.412 294.145 178.989 294.029 178.432L294.983 178.193C295.074 178.545 295.246 178.81 295.499 178.986C295.755 179.162 296.088 179.25 296.5 179.25C296.969 179.25 297.341 179.151 297.617 178.952C297.895 178.75 298.034 178.509 298.034 178.227C298.034 178 297.955 177.81 297.796 177.656C297.637 177.5 297.392 177.384 297.063 177.307L295.972 177.051C295.373 176.909 294.932 176.689 294.651 176.391C294.373 176.089 294.233 175.713 294.233 175.261C294.233 174.892 294.337 174.565 294.544 174.281C294.755 173.997 295.04 173.774 295.401 173.612C295.765 173.45 296.177 173.369 296.637 173.369C297.284 173.369 297.793 173.511 298.162 173.795C298.534 174.08 298.799 174.455 298.955 174.92Z" fill="#666D80"/>
<path d="M237.074 216.239C235.801 216.239 234.667 216.02 233.673 215.582C232.684 215.139 231.903 214.531 231.329 213.759C230.761 212.98 230.468 212.082 230.451 211.065H234.167C234.19 211.491 234.329 211.866 234.585 212.19C234.846 212.509 235.193 212.756 235.625 212.932C236.056 213.108 236.542 213.196 237.082 213.196C237.645 213.196 238.142 213.097 238.574 212.898C239.005 212.699 239.343 212.423 239.588 212.071C239.832 211.719 239.954 211.312 239.954 210.852C239.954 210.386 239.824 209.974 239.562 209.616C239.306 209.253 238.937 208.969 238.454 208.764C237.977 208.56 237.409 208.457 236.75 208.457H235.122V205.747H236.75C237.306 205.747 237.798 205.651 238.224 205.457C238.656 205.264 238.991 204.997 239.23 204.656C239.468 204.31 239.588 203.906 239.588 203.446C239.588 203.009 239.483 202.625 239.272 202.295C239.068 201.96 238.778 201.699 238.403 201.511C238.034 201.324 237.602 201.23 237.108 201.23C236.608 201.23 236.15 201.321 235.735 201.503C235.321 201.679 234.988 201.932 234.738 202.261C234.488 202.591 234.355 202.977 234.338 203.42H230.801C230.818 202.415 231.105 201.528 231.662 200.761C232.218 199.994 232.968 199.395 233.912 198.963C234.86 198.526 235.931 198.307 237.125 198.307C238.329 198.307 239.383 198.526 240.287 198.963C241.19 199.401 241.892 199.991 242.392 200.736C242.897 201.474 243.147 202.304 243.142 203.224C243.147 204.202 242.843 205.017 242.23 205.67C241.622 206.324 240.829 206.739 239.852 206.915V207.051C241.136 207.216 242.113 207.662 242.784 208.389C243.46 209.111 243.795 210.014 243.789 211.099C243.795 212.094 243.508 212.977 242.929 213.75C242.355 214.523 241.562 215.131 240.551 215.574C239.539 216.017 238.38 216.239 237.074 216.239ZM246.178 212.932V210.026L253.465 198.545H255.971V202.568H254.488L249.894 209.838V209.974H260.249V212.932H246.178ZM254.556 216V212.045L254.624 210.759V198.545H258.084V216H254.556Z" fill="#0D0D12"/>
<defs>
<linearGradient id="paint0_linear_2_1706" x1="169.5" y1="33" x2="169.5" y2="210" gradientUnits="userSpaceOnUse">
<stop stop-color="#301DA4" stop-opacity="0.4"/>
<stop offset="1" stop-color="#301DA4" stop-opacity="0"/>
</linearGradient>
<linearGradient id="paint1_linear_2_1706" x1="164" y1="43" x2="164" y2="198" gradientUnits="userSpaceOnUse">
<stop stop-color="#A6FF00" stop-opacity="0.4"/>
<stop offset="1" stop-color="#A6FF00" stop-opacity="0"/>
</linearGradient>
<clipPath id="clip0_2_1706">
<rect width="327" height="150" rx="16" fill="white"/>
</clipPath>
</defs>
</svg>
